HIERARCHY
ROOT Hips
{
	OFFSET 0.000000 0.000000 0.000000
	CHANNELS 6 Xposition Yposition Zposition Zrotation Yrotation Xrotation 
	JOINT LHipJoint
	{
		OFFSET 0.000000 0.000000 0.000000
		CHANNELS 3 Zrotation Yrotation Xrotation
		JOINT LeftUpLeg
		{
			OFFSET 1.363060 -1.794630 0.839290
			CHANNELS 3 Zrotation Yrotation Xrotation
			JOINT LeftLeg
			{
				OFFSET 2.448110 -6.726130 0.000000
				CHANNELS 3 Zrotation Yrotation Xrotation
				JOINT LeftFoot
				{
					OFFSET 2.562200 -7.039590 0.000000
					CHANNELS 3 Zrotation Yrotation Xrotation
					JOINT LeftToeBase
					{
						OFFSET 0.157640 -0.433110 2.322550
						CHANNELS 3 Zrotation Yrotation Xrotation
						End Site
						{
							OFFSET 0.000000 0.000000 0.000000
						}
					}
				}
			}
		}
	}
	JOINT RHipJoint
	{
		OFFSET 0.000000 0.000000 0.000000
		CHANNELS 3 Zrotation Yrotation Xrotation
		JOINT RightUpLeg
		{
			OFFSET -1.305520 -1.794630 0.839290
			CHANNELS 3 Zrotation Yrotation Xrotation
			JOINT RightLeg
			{
				OFFSET -2.542530 -6.985550 0.000000
				CHANNELS 3 Zrotation Yrotation Xrotation
				JOINT RightFoot
				{
					OFFSET -2.568260 -7.056230 0.000000
					CHANNELS 3 Zrotation Yrotation Xrotation
					JOINT RightToeBase
					{
						OFFSET -0.164730 -0.452590 2.363150
						CHANNELS 3 Zrotation Yrotation Xrotation
						End Site
						{
							OFFSET 0.000000 0.000000 0.000000
						}
					}
				}
			}
		}
	}
	JOINT LowerBack
	{
		OFFSET 0.000000 0.000000 0.000000
		CHANNELS 3 Zrotation Yrotation Xrotation
		JOINT Spine
		{
			OFFSET 0.028270 2.035590 -0.193380
			CHANNELS 3 Zrotation Yrotation Xrotation
			JOINT Spine1
			{
				OFFSET 0.056720 2.048850 -0.042750
				CHANNELS 3 Zrotation Yrotation Xrotation
				JOINT Neck
				{
					OFFSET 0.000000 0.000000 0.000000
					CHANNELS 3 Zrotation Yrotation Xrotation
					JOINT Neck1
					{
						OFFSET -0.054170 1.746240 0.172020
						CHANNELS 3 Zrotation Yrotation Xrotation
						JOINT Head
						{
							OFFSET 0.104070 1.761360 -0.123970
							CHANNELS 3 Zrotation Yrotation Xrotation
							End Site
							{
								OFFSET 0.000000 0.000000 0.000000
							}
						}
					}
				}
				JOINT LeftShoulder
				{
					OFFSET 0.000000 0.000000 0.000000
					CHANNELS 3 Zrotation Yrotation Xrotation
					JOINT LeftArm
					{
						OFFSET 3.362410 1.200890 -0.311210
						CHANNELS 3 Zrotation Yrotation Xrotation
						JOINT LeftForeArm
						{
							OFFSET 4.983000 -0.000000 -0.000000
							CHANNELS 3 Zrotation Yrotation Xrotation
							JOINT LeftHand
							{
								OFFSET 3.483560 -0.000000 -0.000000
								CHANNELS 3 Zrotation Yrotation Xrotation
								JOINT LeftFingerBase
								{
									OFFSET 0.000000 0.000000 0.000000
									CHANNELS 3 Zrotation Yrotation Xrotation
									JOINT LeftHandIndex1
									{
										OFFSET 0.715260 -0.000000 -0.000000
										CHANNELS 3 Zrotation Yrotation Xrotation
										End Site
										{
											OFFSET 0.000000 0.000000 0.000000
										}
									}
								}
								JOINT LThumb
								{
									OFFSET 0.000000 0.000000 0.000000
									CHANNELS 3 Zrotation Yrotation Xrotation
									End Site
									{
										OFFSET 0.000000 0.000000 0.000000
									}
								}
							}
						}
					}
				}
				JOINT RightShoulder
				{
					OFFSET 0.000000 0.000000 0.000000
					CHANNELS 3 Zrotation Yrotation Xrotation
					JOINT RightArm
					{
						OFFSET -3.136600 1.374050 -0.404650
						CHANNELS 3 Zrotation Yrotation Xrotation
						JOINT RightForeArm
						{
							OFFSET -5.241900 -0.000000 -0.000000
							CHANNELS 3 Zrotation Yrotation Xrotation
							JOINT RightHand
							{
								OFFSET -3.444170 -0.000000 -0.000000
								CHANNELS 3 Zrotation Yrotation Xrotation
								JOINT RightFingerBase
								{
									OFFSET 0.000000 0.000000 0.000000
									CHANNELS 3 Zrotation Yrotation Xrotation
									JOINT RightHandIndex1
									{
										OFFSET -0.622530 -0.000000 -0.000000
										CHANNELS 3 Zrotation Yrotation Xrotation
										End Site
										{
											OFFSET 0.000000 0.000000 0.000000
										}
									}
								}
								JOINT RThumb
								{
									OFFSET 0.000000 0.000000 0.000000
									CHANNELS 3 Zrotation Yrotation Xrotation
									End Site
									{
										OFFSET 0.000000 0.000000 0.000000
									}
								}
							}
						}
					}
				}
			}
		}
	}
}
MOTION
Frames: 13
Frame Time: 0.008333
3.460977 17.610881 1.194004 30.537985 84.109272 50.425601 -9.851600 0.046482 -0.155527 -13.807842 2.517746 -38.438882 -1.885140 0.766482 24.881428 2.826584 15.828274 -3.030812 1.946600 0.000000 -33.425200 8.973311 -0.990800 -0.200142 7.464013 -1.517045 -13.169496 2.529891 0.941640 3.546732 -0.510134 -2.318901 -1.566850 -0.690700 0.000000 -44.161500 1.526266 0.426743 1.603355 -0.540758 0.321157 -2.493899 -5.956995 0.258979 1.137487 7.144878 0.176469 -3.228788 -3.597192 -0.304362 1.010779 0.000000 0.000000 0.000000 -2.070548 6.335552 3.154214 -41.309245 4.229792 18.905007 -4.358773 -37.773309 -0.018467 -12.669244 -0.490333 0.043779 -0.170185 -0.095960 -0.000000 0.000000 0.000000 0.000000 0.000000 0.000000 0.000000 13.435487 3.029872 1.133984 53.778523 24.513650 21.013817 2.293320 46.752753 0.019123 4.100526 13.349615 0.488082 0.009562 -0.224213 0.000000 0.000000 0.000000 0.000000 0.000000 0.000000 0.000000 
3.665442 17.591668 1.215982 27.287848 83.789853 47.179042 -9.698572 -0.056343 0.042640 -13.643593 2.190784 -38.634348 -2.050412 0.451602 21.328120 2.721334 15.232335 -2.537975 2.063800 0.000000 -33.592600 9.031769 -1.006965 -0.304511 7.431457 -1.483208 -11.947784 2.531136 0.980756 2.961592 -0.469610 -2.092139 -1.636037 -0.646600 -0.000000 -44.833100 1.306992 0.610291 1.574697 -0.552812 0.522207 -2.497636 -5.779647 0.460278 1.156013 6.737712 0.162666 -3.259936 -3.469944 -0.296174 1.004922 0.000000 0.000000 0.000000 -2.529737 6.800595 3.086844 -41.645413 4.943809 18.721392 -4.434278 -36.826728 -0.020106 -12.662536 -0.321485 0.024731 -0.173400 -0.100856 -0.000000 0.000000 0.000000 0.000000 0.000000 0.000000 0.000000 12.466881 3.208988 1.110685 53.279667 25.612941 22.242040 2.173785 48.375714 0.018711 3.976476 13.257469 0.470676 0.006950 -0.234283 -0.000000 0.000000 0.000000 0.000000 0.000000 0.000000 0.000000 
3.870726 17.564119 1.235425 23.755741 83.469147 43.657105 -9.573822 -0.178463 0.243820 -13.348589 1.942064 -38.852645 -2.208407 0.127971 17.803173 2.581782 14.486527 -2.047729 2.140900 0.000001 -33.895900 9.063161 -1.029181 -0.401051 7.481209 -1.380713 -10.762706 2.538137 1.016643 2.486849 -0.442882 -1.917700 -1.807385 -0.605099 0.000000 -45.476400 1.152595 0.791109 1.534826 -0.551973 0.716498 -2.500882 -5.601183 0.655121 1.182051 6.318766 0.152308 -3.300758 -3.339257 -0.287600 0.996935 0.000000 0.000000 0.000000 -2.989196 7.319787 3.016090 -41.979071 5.658989 18.487621 -4.502877 -35.943458 -0.021619 -12.652397 -0.149374 0.005285 -0.176192 -0.105087 -0.000000 0.000000 0.000000 0.000000 0.000000 0.000000 0.000000 11.468068 3.386250 1.082421 52.717005 26.730283 23.351796 2.054163 49.975291 0.018243 3.862631 13.166681 0.454766 0.004137 -0.244195 -0.000000 0.000000 0.000000 0.000000 0.000000 0.000000 0.000000 
4.076989 17.528768 1.252262 19.983150 83.136528 39.894610 -9.476149 -0.318199 0.435955 -12.955144 1.820100 -39.114756 -2.360765 -0.196211 14.356450 2.402286 13.559298 -1.551405 2.170500 -0.000000 -34.386900 9.069510 -1.056857 -0.488063 7.610315 -1.217598 -9.598741 2.551003 1.052227 2.099872 -0.429764 -1.797175 -2.079118 -0.566400 -0.000001 -46.057600 1.062782 0.969214 1.491818 -0.538646 0.904298 -2.502233 -5.422736 0.843728 1.214423 5.891627 0.144955 -3.351768 -3.206867 -0.278728 0.986555 0.000000 0.000000 0.000000 -3.448546 7.886644 2.942485 -42.319277 6.380440 18.182037 -4.565142 -35.119294 -0.022999 -12.639160 0.025001 -0.014159 -0.178590 -0.108652 -0.000000 0.000000 0.000000 0.000000 0.000000 0.000000 0.000000 10.451543 3.559897 1.051103 52.082091 27.868663 24.343177 1.935163 51.539404 0.017728 3.763303 13.083076 0.440953 0.001036 -0.253925 -0.000000 0.000000 0.000000 0.000000 0.000000 0.000000 0.000000 
4.284286 17.486266 1.266501 16.030256 82.782806 35.941917 -9.403003 -0.472217 0.601922 -12.517144 1.891382 -39.452420 -2.512779 -0.509336 11.057346 2.176562 12.409292 -1.035939 2.144100 0.000000 -35.121200 9.053747 -1.089708 -0.563720 7.814048 -1.005884 -8.439465 2.570101 1.090022 1.778344 -0.428941 -1.724443 -2.447062 -0.529400 -0.000000 -46.549500 1.036302 1.143230 1.457910 -0.513054 1.084657 -2.498921 -5.244857 1.025174 1.254034 5.459805 0.147716 -3.415569 -3.073763 -0.269550 0.972822 0.000000 0.000000 0.000000 -3.903863 8.519104 2.867875 -42.678101 7.074776 17.795277 -4.623299 -34.328137 -0.024181 -12.621448 0.194505 -0.032999 -0.180714 -0.111388 -0.000000 0.000000 0.000000 0.000000 0.000000 0.000000 0.000000 9.424802 3.735687 1.015239 51.373280 29.022911 25.204369 1.816673 53.058632 0.017149 3.689127 13.012076 0.430636 -0.002618 -0.263452 -0.000000 0.000000 0.000000 0.000000 0.000000 0.000000 0.000000 
4.492693 17.437355 1.278399 12.072717 82.402877 31.964009 -9.348450 -0.635333 0.729407 -12.105493 2.194170 -39.884371 -2.670550 -0.802479 7.960991 1.904412 11.023358 -0.483505 2.058600 -0.000000 -36.125600 9.022999 -1.127134 -0.629410 8.071084 -0.779255 -7.274828 2.595345 1.130354 1.508091 -0.436143 -1.673693 -2.903150 -0.490300 -0.000000 -46.959600 1.059854 1.310489 1.443428 -0.478054 1.255930 -2.490760 -5.070102 1.197628 1.294178 5.031413 0.152514 -3.488076 -2.942996 -0.260332 0.956821 0.000000 0.000000 0.000000 -4.358285 9.166540 2.792895 -43.052785 7.806244 17.293043 -4.676153 -33.599197 -0.025244 -12.603999 0.364779 -0.051738 -0.182505 -0.113554 -0.000000 0.000000 0.000000 0.000000 0.000000 0.000000 0.000000 8.412831 3.903570 0.981774 50.577593 30.198503 25.943653 1.700202 54.519444 0.016531 3.634904 12.956442 0.423313 -0.006718 -0.272816 -0.000000 0.000000 0.000000 0.000000 0.000000 0.000000 0.000000 
4.702210 17.382805 1.288293 8.273835 81.998514 28.113838 -9.305522 -0.801776 0.805661 -11.802838 2.763180 -40.441741 -2.843247 -1.065798 5.142629 1.587730 9.385241 0.105311 1.905800 0.000000 -37.393400 8.983944 -1.168790 -0.687669 8.358229 -0.574528 -6.098170 2.626872 1.172823 1.279084 -0.445865 -1.612378 -3.434566 -0.445300 0.000000 -47.318699 1.117973 1.466871 1.460386 -0.436227 1.415235 -2.475497 -4.899121 1.358194 1.334792 4.613238 0.163312 -3.570826 -2.815612 -0.251096 0.937889 0.000000 0.000000 0.000000 -4.805798 9.836610 2.719972 -43.449395 8.543055 16.678516 -4.725986 -32.908518 -0.026143 -12.586525 0.528831 -0.069675 -0.184073 -0.115043 -0.000000 0.000000 0.000000 0.000000 0.000000 0.000000 0.000000 7.427509 4.065428 0.949603 49.695724 31.383686 26.545701 1.585528 55.916364 0.015856 3.608211 12.913697 0.419586 -0.011495 -0.281995 -0.000000 0.000000 0.000000 0.000000 0.000000 0.000000 0.000000 
4.912833 17.323431 1.296618 4.811259 81.580284 24.563607 -9.265760 -0.965490 0.828410 -11.679865 3.581709 -41.144149 -3.036235 -1.294402 2.655643 1.237664 7.523137 0.719494 1.684900 -0.000000 -38.900700 8.944101 -1.213637 -0.744422 8.642753 -0.437342 -4.912077 2.664395 1.215482 1.089974 -0.450976 -1.499043 -4.023705 -0.391600 -0.000000 -47.685201 1.187606 1.607289 1.515113 -0.391753 1.558974 -2.452629 -4.733256 1.503189 1.373913 4.213610 0.178115 -3.663097 -2.693161 -0.241954 0.916085 0.000000 0.000000 0.000000 -5.242230 10.515202 2.651005 -43.866175 9.283699 15.952679 -4.773921 -32.250555 -0.026880 -12.570784 0.684316 -0.086608 -0.185473 -0.115902 -0.000000 0.000000 0.000000 0.000000 0.000000 0.000000 0.000000 6.485863 4.216740 0.920078 48.727561 32.570432 27.004526 1.473221 57.241580 0.015130 3.609982 12.882432 0.419753 -0.017011 -0.291001 0.000000 0.000000 0.000000 0.000000 0.000000 0.000000 0.000000 
5.124509 17.260077 1.304001 1.854494 81.165754 21.486019 -9.221153 -1.121646 0.814604 -11.749707 4.539786 -41.968796 -3.240568 -1.492481 0.488206 0.881598 5.567747 1.349902 1.416100 -0.000000 -40.599100 8.911423 -1.258667 -0.811215 8.884130 -0.417036 -3.729731 2.706883 1.254685 0.948383 -0.443433 -1.287955 -4.648755 -0.328001 0.000000 -48.139400 1.239217 1.726652 1.604194 -0.350430 1.683559 -2.423992 -4.574383 1.628908 1.407817 3.841735 0.193199 -3.761209 -2.577644 -0.233105 0.892378 0.000000 0.000000 0.000000 -5.665049 11.170667 2.587378 -44.295463 10.049105 15.116578 -4.820415 -31.634579 -0.027504 -12.560300 0.832867 -0.102640 -0.186729 -0.116297 -0.000000 0.000000 0.000000 0.000000 0.000000 0.000000 0.000000 5.608296 4.351579 0.896355 47.672716 33.747440 27.317427 1.364339 58.489204 0.014365 3.638259 12.859821 0.423214 -0.023224 -0.299859 0.000000 0.000000 0.000000 0.000000 0.000000 0.000000 0.000000 
5.337187 17.193299 1.310700 -0.621085 80.777284 18.860462 -9.165620 -1.263803 0.769881 -12.034203 5.595721 -42.952995 -3.457778 -1.654893 -1.278669 0.532542 3.555527 1.920266 1.098600 0.000000 -42.362000 8.888448 -1.304432 -0.891498 9.068973 -0.534450 -2.562667 2.754381 1.288610 0.859356 -0.418486 -0.957201 -5.282916 -0.258500 0.000001 -48.753100 1.265079 1.823285 1.725398 -0.313620 1.787638 -2.389286 -4.422387 1.734068 1.440315 3.500863 0.204095 -3.868287 -2.468540 -0.224468 0.865830 0.000000 0.000000 0.000000 -6.063630 11.821748 2.530184 -44.742107 10.781305 14.206431 -4.866993 -31.023373 -0.027956 -12.552731 0.967126 -0.117168 -0.187897 -0.116089 -0.000000 0.000000 0.000000 0.000000 0.000000 0.000000 0.000000 4.795865 4.463992 0.874565 46.544463 34.901342 27.477190 1.258928 59.655189 0.013565 3.695250 12.840930 0.430170 -0.030228 -0.308506 0.000000 0.000000 0.000000 0.000000 0.000000 0.000000 0.000000 
5.550924 17.123783 1.317226 -2.603743 80.435230 16.712861 -9.097056 -1.389280 0.725693 -12.451856 6.583068 -44.032408 -3.665080 -1.791652 -2.706489 0.223047 1.689088 2.400948 0.777000 -0.000000 -44.097900 8.879494 -1.348349 -0.996068 9.174197 -0.809396 -1.429078 2.805388 1.313087 0.835998 -0.372084 -0.487271 -5.899249 -0.187900 0.000000 -49.593100 1.249557 1.896247 1.864042 -0.285127 1.870531 -2.352517 -4.279392 1.817929 1.467341 3.196496 0.205587 -3.978172 -2.367238 -0.216254 0.838233 0.000000 0.000000 0.000000 -6.435967 12.430100 2.479391 -45.195970 11.511940 13.232944 -4.913002 -30.432494 -0.028310 -12.551449 1.092758 -0.130695 -0.188950 -0.115510 -0.000000 0.000000 0.000000 0.000000 0.000000 0.000000 0.000000 4.061205 4.548606 0.857488 45.351562 36.014277 27.488292 1.158373 60.736967 0.012755 3.775437 12.821855 0.439922 -0.037834 -0.316945 0.000000 0.000000 0.000000 0.000000 0.000000 0.000000 0.000000 
5.765835 17.051948 1.323817 -4.199704 80.153992 14.946618 -9.016710 -1.495881 0.697189 -12.935400 7.424208 -45.180329 -3.852147 -1.904332 -3.790376 -0.033801 0.065851 2.730168 0.478400 0.000000 -45.692500 8.884645 -1.391124 -1.127450 9.200832 -1.233401 -0.338086 2.859078 1.325444 0.887086 -0.304160 0.116753 -6.471123 -0.122999 0.000000 -50.691899 1.195140 1.948207 2.010996 -0.265090 1.934353 -2.315319 -4.146290 1.882659 1.489824 2.929325 0.192618 -4.089194 -2.273456 -0.208482 0.810074 0.000000 0.000000 0.000000 -6.774982 12.992933 2.434558 -45.655473 12.220156 12.228408 -4.958395 -29.845928 -0.028570 -12.554941 1.209836 -0.143320 -0.189873 -0.114588 -0.000000 0.000000 0.000000 0.000000 0.000000 0.000000 0.000000 3.403021 4.601241 0.843121 44.112548 37.067431 27.354760 1.063303 61.733384 0.011956 3.876517 12.797672 0.451872 -0.045949 -0.325101 -0.000000 0.000000 0.000000 0.000000 0.000000 0.000000 0.000000 
5.982138 16.978347 1.330742 -5.482771 79.939080 13.498653 -8.931273 -1.586336 0.708025 -13.352917 8.001062 -46.296787 -3.995798 -2.002584 -4.619480 -0.218938 -1.143956 2.895202 0.249000 0.000001 -47.062600 8.904202 -1.431617 -1.290954 9.147141 -1.790850 0.704847 2.913698 1.322133 1.023102 -0.216287 0.842527 -6.975919 -0.069400 0.000000 -52.059101 1.101520 1.983597 2.153899 -0.254620 1.983007 -2.280782 -4.025145 1.932159 1.504938 2.700655 0.160490 -4.195327 -2.187923 -0.201315 0.783095 0.000000 0.000000 0.000000 -7.078732 13.482107 2.394223 -46.112780 12.929586 11.209154 -5.002240 -29.273659 -0.028805 -12.563866 1.324739 -0.155843 -0.190630 -0.113542 -0.000000 0.000000 0.000000 0.000000 0.000000 0.000000 0.000000 2.825485 4.619702 0.832886 42.845395 38.041050 27.089748 0.974942 62.644699 0.011202 3.992234 12.765118 0.465220 -0.054320 -0.332934 -0.000000 0.000000 0.000000 0.000000 0.000000 0.000000 0.000000 
